<mxfile host="app.diagrams.net" modified="2023-05-12T12:49:40.961Z" agent="Mozilla/5.0 (Windows NT 10.0; Win64; x64) AppleWebKit/537.36 (KHTML, like Gecko) Chrome/113.0.0.0 Safari/537.36" version="21.2.9" etag="f5j3ci6yLFNqWKS6MO7l" type="github">
  <diagram name="Trang-1" id="c7EblUQVgm6szsO-YkeE">
    <mxGraphModel>
      <root>
        <mxCell id="0" />
        <mxCell id="1" parent="0" />
      </root>
    </mxGraphModel>
  </diagram>
</mxfile>
